<svg xmlns="http://www.w3.org/2000/svg" viewBox="0 0 720 560" role="img" aria-labelledby="t d"><title id="t">LeadFlowAI Quality Canvas</title><desc id="d">Wizualizacja obszarów walidacji projektu: dostępność, wydajność, search i bezpieczeństwo.</desc><rect width="720" height="560" rx="28" fill="#101519"/><rect x="1" y="1" width="718" height="558" rx="27" fill="none" stroke="#ffffff" stroke-opacity=".13"/><circle cx="32" cy="34" r="5" fill="#c7ff2f"/><text x="50" y="38" fill="#899489" font-family="Arial,sans-serif" font-size="11" letter-spacing="1.5">LEADFLOW / QUALITY CANVAS</text><text x="650" y="38" text-anchor="end" fill="#c7ff2f" font-family="Arial,sans-serif" font-size="10">PRE-PUBLISH</text><path d="M20 60H700" stroke="#fff" stroke-opacity=".08"/><g font-family="Arial,sans-serif"><g transform="translate(22 82)"><rect width="328" height="176" rx="18" fill="#ffffff" fill-opacity=".025" stroke="#fff" stroke-opacity=".08"/><text x="18" y="25" fill="#c7ff2f" font-size="10">01</text><text x="18" y="58" fill="#f5f7f2" font-weight="700" font-size="17">ACCESSIBILITY</text><text x="18" y="88" fill="#8e988e" font-size="12">Klawiatura · focus · kontrast</text><text x="18" y="108" fill="#8e988e" font-size="12">reduced motion · semantyka</text><rect x="18" y="139" width="286" height="5" rx="3" fill="#29312b"/><rect x="18" y="139" width="206" height="5" rx="3" fill="#c7ff2f"/></g><g transform="translate(370 82)"><rect width="328" height="176" rx="18" fill="#142018" stroke="#fff" stroke-opacity=".08"/><text x="18" y="25" fill="#c7ff2f" font-size="10">02</text><text x="18" y="58" fill="#f5f7f2" font-weight="700" font-size="17">PERFORMANCE</text><text x="18" y="88" fill="#8e988e" font-size="12">Budżety · CWV · JS/CSS</text><text x="18" y="108" fill="#8e988e" font-size="12">static artifact · route smoke</text><rect x="18" y="139" width="286" height="5" rx="3" fill="#29312b"/><rect x="18" y="139" width="206" height="5" rx="3" fill="#c7ff2f"/></g><g transform="translate(22 278)"><rect width="328" height="176" rx="18" fill="#ffffff" fill-opacity=".025" stroke="#fff" stroke-opacity=".08"/><text x="18" y="25" fill="#c7ff2f" font-size="10">03</text><text x="18" y="58" fill="#f5f7f2" font-weight="700" font-size="17">SEARCH</text><text x="18" y="88" fill="#8e988e" font-size="12">SEO · AEO · GEO · schema</text><text x="18" y="108" fill="#8e988e" font-size="12">canonical · linkowanie</text><rect x="18" y="139" width="286" height="5" rx="3" fill="#29312b"/><rect x="18" y="139" width="206" height="5" rx="3" fill="#c7ff2f"/></g><g transform="translate(370 278)"><rect width="328" height="176" rx="18" fill="#ffffff" fill-opacity=".025" stroke="#fff" stroke-opacity=".08"/><text x="18" y="25" fill="#c7ff2f" font-size="10">04</text><text x="18" y="58" fill="#f5f7f2" font-weight="700" font-size="17">SECURITY</text><text x="18" y="88" fill="#8e988e" font-size="12">Boundary · brak sekretów</text><text x="18" y="108" fill="#8e988e" font-size="12">kontrola integracji · fallback</text><rect x="18" y="139" width="286" height="5" rx="3" fill="#29312b"/><rect x="18" y="139" width="206" height="5" rx="3" fill="#c7ff2f"/></g></g><rect x="22" y="478" width="676" height="58" rx="15" fill="#0b0f12"/><text x="40" y="501" fill="#778177" font-family="Arial,sans-serif" font-size="9">RELEASE RULE</text><text x="40" y="522" fill="#f5f7f2" font-family="Arial,sans-serif" font-weight="700" font-size="13">Publikujemy po przejściu ustalonych gate’ów.</text><rect x="555" y="494" width="122" height="26" rx="13" fill="none" stroke="#c7ff2f" stroke-opacity=".45"/><text x="616" y="511" text-anchor="middle" fill="#c7ff2f" font-family="Arial,sans-serif" font-size="9">EVIDENCE FIRST</text></svg>
